<?xml version="1.0" standalone="no"?><!-- Generator: Gravit.io --><svg xmlns="http://www.w3.org/2000/svg" xmlns:xlink="http://www.w3.org/1999/xlink" style="isolation:isolate" viewBox="455.146 187.222 333.626 338.278" width="333.626" height="338.278"><path d=" M 458 352 C 450 323 479 289 504 269 C 529 249 560 204 604 193 C 648 182 685 193 727 217 C 769 241 736 289 753 336 C 770 383 798 380 783 438 C 768 496 702 524 649 524 C 601.597 524 565 459 532 415 C 520.537 399.716 466 381 458 352 Z " fill="rgb(255,255,255)" vector-effect="non-scaling-stroke" stroke-width="6" stroke="rgb(0,0,0)" stroke-linejoin="miter" stroke-linecap="square" stroke-miterlimit="3"/><path d=" M 577 290.361 C 577 253.935 606.574 224.361 643 224.361 C 679.426 224.361 709 253.935 709 290.361 C 709 326.788 679.426 356.361 643 356.361 C 606.574 356.361 577 326.788 577 290.361 Z " fill="none" vector-effect="non-scaling-stroke" stroke-width="6" stroke="rgb(0,0,0)" stroke-linejoin="miter" stroke-linecap="square" stroke-miterlimit="3"/></svg>