<?xml version="1.0" standalone="no"?><!-- Generator: Gravit.io --><svg xmlns="http://www.w3.org/2000/svg" xmlns:xlink="http://www.w3.org/1999/xlink" style="isolation:isolate" viewBox="447 184 416 416" width="416" height="416"><path d=" M 608 349.5 C 608 299 649 258 699.5 258 C 750 258 791 299 791 349.5 C 791 400 750 441 699.5 441 C 649 441 608 400 608 349.5 Z " fill="none" vector-effect="non-scaling-stroke" stroke-width="4" stroke="rgb(0,0,0)" stroke-linejoin="miter" stroke-linecap="square" stroke-miterlimit="3"/><path d=" M 541 484 C 492.669 447.078 453 404.459 453 339 C 453 227.513 543.513 190 655 190 C 766.487 190 857 287.513 857 399 C 857 510.487 751.487 594 640 594 C 593.972 594 574.985 509.962 541 484 Z " fill="none" vector-effect="non-scaling-stroke" stroke-width="4" stroke="rgb(0,0,0)" stroke-linejoin="miter" stroke-linecap="square" stroke-miterlimit="3"/></svg>