<svg xmlns="http://www.w3.org/2000/svg" xmlns:xlink="http://www.w3.org/1999/xlink" style="isolation:isolate" viewBox="-30 -30 560 560" width="560" height="560">
    <path d="M 151.722 0 L 348.278 0 C 432.016 0 500 67.984 500 151.722 L 500 348.278 C 500 432.016 432.016 500 348.278 500 L 151.722 500 C 67.984 500 0 432.016 0 348.278 L 0 151.722 C 0 67.984 67.984 0 151.722 0 Z" style="fill:none;stroke:#000000;stroke-width:20;stroke-linecap:square;stroke-miterlimit:3;"/>
    <path d=" M 350 86 L 316 178 L 409 140 L 409 117 L 396 100 L 378 86 L 350 86 Z " fill="rgb(153,0,255)"/>
    <path d=" M 200.856 169.9 C 274.03 96.726 361.162 65.042 395.31 99.19 C 429.458 133.338 397.774 220.47 324.6 293.644 C 251.425 366.818 164.293 398.503 130.145 364.355 C 95.997 330.207 127.682 243.075 200.856 169.9 Z " fill="none" vector-effect="non-scaling-stroke" stroke-width="20" stroke="rgb(0,0,0)" stroke-linejoin="miter" stroke-linecap="square" stroke-miterlimit="3"/>
    <line x1="316.822" y1="177.678" x2="104.69" y2="389.81" vector-effect="non-scaling-stroke" stroke-width="20" stroke="rgb(0,0,0)" stroke-linejoin="miter" stroke-linecap="square" stroke-miterlimit="3"/>
    <line x1="193.078" y1="295.765" x2="212.877" y2="165.658" vector-effect="non-scaling-stroke" stroke-width="20" stroke="rgb(0,0,0)" stroke-linejoin="miter" stroke-linecap="square" stroke-miterlimit="3"/>
    <line x1="162.672" y1="336.07" x2="288.184" y2="320.16" vector-effect="non-scaling-stroke" stroke-width="20" stroke="rgb(0,0,0)" stroke-linejoin="miter" stroke-linecap="square" stroke-miterlimit="3"/>
    <line x1="313.993" y1="174.85" x2="349.702" y2="88.937" vector-effect="non-scaling-stroke" stroke-width="20" stroke="rgb(0,0,0)" stroke-linejoin="miter" stroke-linecap="square" stroke-miterlimit="3"/>
    <line x1="317.882" y1="178.739" x2="403.796" y2="143.03" vector-effect="non-scaling-stroke" stroke-width="20" stroke="rgb(0,0,0)" stroke-linejoin="miter" stroke-linecap="square" stroke-miterlimit="3"/>
</svg>