<?xml version="1.0" standalone="no"?><!-- Generator: Gravit.io --><svg xmlns="http://www.w3.org/2000/svg" xmlns:xlink="http://www.w3.org/1999/xlink" style="isolation:isolate" viewBox="447 184 416 416" width="416" height="416"><path d=" M 538 275 L 772 275 L 857 594 L 453 594 L 538 275 Z " fill="none" vector-effect="non-scaling-stroke" stroke-width="4" stroke="rgb(0,0,0)" stroke-linejoin="miter" stroke-linecap="square" stroke-miterlimit="3"/><path d=" M 583.656 275 L 601.492 232.5 L 619.328 190 L 655 190 L 690.672 190 L 708.508 232.5 L 726.344 275 L 583.656 275 Z " fill="none" vector-effect="non-scaling-stroke" stroke-width="4" stroke="rgb(0,0,0)" stroke-linejoin="miter" stroke-linecap="square" stroke-miterlimit="3"/><path d=" M 601.492 275 L 614.869 240 L 628.246 205 L 655 205 L 681.754 205 L 695.131 240 L 708.508 275 L 601.492 275 Z " fill="none" vector-effect="non-scaling-stroke" stroke-width="4" stroke="rgb(0,0,0)" stroke-linejoin="miter" stroke-linecap="square" stroke-miterlimit="3"/><path d=" M 637.246 462.5 L 562.246 462.5 L 562.246 450 L 587.246 450 L 587.246 400 L 574.746 400 L 574.746 387.5 L 587.246 387.5 L 587.246 375 L 612.246 375 L 612.246 450 L 637.246 450 L 637.246 462.5 Z  M 724.746 475 L 662.246 475 L 662.246 462.5 L 712.246 462.5 L 712.246 450 L 662.246 450 L 662.246 437.5 L 649.746 437.5 L 649.746 412.5 L 662.246 412.5 L 662.246 400 L 737.246 400 L 737.246 462.5 L 724.746 462.5 L 724.746 475 Z  M 674.746 412.5 L 674.746 437.5 L 712.246 437.5 L 712.246 412.5 L 674.746 412.5 Z " fill-rule="evenodd" fill="rgb(255,255,255)" vector-effect="non-scaling-stroke" stroke-width="4" stroke="rgb(0,0,0)" stroke-linejoin="miter" stroke-linecap="square" stroke-miterlimit="3"/></svg>