<?xml version="1.0" standalone="no"?><!-- Generator: Gravit.io --><svg xmlns="http://www.w3.org/2000/svg" xmlns:xlink="http://www.w3.org/1999/xlink" style="isolation:isolate" viewBox="453 252.698 404 341.302" width="404" height="341.302"><path d=" M 580.425 351.196 L 580.425 383 L 558.34 383 L 536.255 383 L 514.17 383 L 492.085 383 L 470 383 L 470 307.911 L 470 307.911 C 470 277.438 494.74 252.698 525.213 252.698 C 555.685 252.698 580.425 277.438 580.425 307.911 L 580.425 308.462 L 593.143 313.661 L 632.693 329.829 L 593.143 345.997 L 580.425 351.196 M 563.862 372.582 L 558.34 383 L 569.383 383 L 580.425 383 L 574.904 372.582 L 569.383 362.165 L 563.862 372.582 M 580.425 351.196 Z  M 534.047 294.66 C 534.047 287.346 539.984 281.409 547.298 281.409 C 554.611 281.409 560.549 287.346 560.549 294.66 C 560.549 301.973 554.611 307.911 547.298 307.911 C 539.984 307.911 534.047 301.973 534.047 294.66 Z  M 580.425 307.911 L 580.425 307.911 Z  M 541.776 372.582 L 536.255 383 L 547.298 383 L 558.34 383 L 552.819 372.582 L 547.298 362.165 L 541.776 372.582 Z  M 580.425 307.911 L 580.425 307.911 Z  M 519.691 372.582 L 514.17 383 L 525.213 383 L 536.255 383 L 530.734 372.582 L 525.213 362.165 L 519.691 372.582 Z  M 580.425 307.911 L 580.425 307.911 Z  M 497.606 372.582 L 492.085 383 L 503.128 383 L 514.17 383 L 508.649 372.582 L 503.128 362.165 L 497.606 372.582 Z  M 580.425 307.911 L 580.425 307.911 Z  M 475.521 372.582 L 470 383 L 481.043 383 L 492.085 383 L 486.564 372.582 L 481.043 362.165 L 475.521 372.582 Z " fill-rule="evenodd" fill="rgb(235,235,235)"/><path d=" M 640.029 366.626 L 640.029 383 L 651.399 383 L 662.77 383 L 674.14 383 L 685.511 383 L 696.881 383 L 696.881 344.34 L 696.881 344.34 C 696.881 328.651 684.144 315.914 668.455 315.914 C 652.766 315.914 640.029 328.651 640.029 344.34 L 640.029 344.624 L 633.481 347.301 L 613.119 355.625 L 633.481 363.949 L 640.029 366.626 M 648.557 377.637 L 651.399 383 L 645.714 383 L 640.029 383 L 642.871 377.637 L 645.714 372.273 L 648.557 377.637 M 640.029 366.626 Z  M 663.907 337.518 C 663.907 333.753 660.85 330.696 657.085 330.696 C 653.319 330.696 650.262 333.753 650.262 337.518 C 650.262 341.283 653.319 344.34 657.085 344.34 C 660.85 344.34 663.907 341.283 663.907 337.518 Z  M 640.029 344.34 L 640.029 344.34 Z  M 659.927 377.637 L 662.77 383 L 657.085 383 L 651.399 383 L 654.242 377.637 L 657.085 372.273 L 659.927 377.637 Z  M 640.029 344.34 L 640.029 344.34 Z  M 671.298 377.637 L 674.14 383 L 668.455 383 L 662.77 383 L 665.612 377.637 L 668.455 372.273 L 671.298 377.637 Z  M 640.029 344.34 L 640.029 344.34 Z  M 682.668 377.637 L 685.511 383 L 679.826 383 L 674.14 383 L 676.983 377.637 L 679.826 372.273 L 682.668 377.637 Z  M 640.029 344.34 L 640.029 344.34 Z  M 694.039 377.637 L 696.881 383 L 691.196 383 L 685.511 383 L 688.353 377.637 L 691.196 372.273 L 694.039 377.637 Z " fill-rule="evenodd" fill="rgb(235,235,235)"/><path d=" M 749.165 358.024 L 749.165 383 L 766.508 383 L 783.851 383 L 801.195 383 L 818.538 383 L 835.881 383 L 835.881 324.033 L 835.881 324.033 C 835.881 300.102 816.453 280.674 792.523 280.674 C 768.593 280.674 749.165 300.102 749.165 324.033 L 749.165 324.466 L 739.177 328.548 L 708.119 341.245 L 739.177 353.942 L 749.165 358.024 M 762.172 374.819 L 766.508 383 L 757.836 383 L 749.165 383 L 753.5 374.819 L 757.836 366.638 L 762.172 374.819 M 749.165 358.024 Z  M 785.586 313.627 C 785.586 307.883 780.923 303.221 775.18 303.221 C 769.436 303.221 764.774 307.883 764.774 313.627 C 764.774 319.37 769.436 324.033 775.18 324.033 C 780.923 324.033 785.586 319.37 785.586 313.627 Z  M 749.165 324.033 L 749.165 324.033 Z  M 779.515 374.819 L 783.851 383 L 775.18 383 L 766.508 383 L 770.844 374.819 L 775.18 366.638 L 779.515 374.819 Z  M 749.165 324.033 L 749.165 324.033 Z  M 796.859 374.819 L 801.195 383 L 792.523 383 L 783.851 383 L 788.187 374.819 L 792.523 366.638 L 796.859 374.819 Z  M 749.165 324.033 L 749.165 324.033 Z  M 814.202 374.819 L 818.538 383 L 809.866 383 L 801.195 383 L 805.53 374.819 L 809.866 366.638 L 814.202 374.819 Z  M 749.165 324.033 L 749.165 324.033 Z  M 831.546 374.819 L 835.881 383 L 827.21 383 L 818.538 383 L 822.874 374.819 L 827.21 366.638 L 831.546 374.819 Z " fill-rule="evenodd" fill="rgb(235,235,235)"/><path d=" M 453 392 C 453 503.487 543.513 594 655 594 C 766.487 594 857 503.487 857 392 L 453 392 Z " fill="rgb(235,235,235)"/></svg>