<svg xmlns="http://www.w3.org/2000/svg" xmlns:xlink="http://www.w3.org/1999/xlink" style="isolation:isolate" viewBox="-30 -30 560 560" width="560" height="560">
    <path d="M 151.722 0 L 348.278 0 C 432.016 0 500 67.984 500 151.722 L 500 348.278 C 500 432.016 432.016 500 348.278 500 L 151.722 500 C 67.984 500 0 432.016 0 348.278 L 0 151.722 C 0 67.984 67.984 0 151.722 0 Z" style="fill:none;stroke:#000000;stroke-width:20;stroke-linecap:square;stroke-miterlimit:3;"/>
    <polygon points="333.7,213.757,250,262.081,166.3,213.757,166.3,117.108,250,68.783,333.7,117.108" fill="none" vector-effect="non-scaling-stroke" stroke-width="20" stroke="rgb(0,0,0)" stroke-linejoin="miter" stroke-linecap="square" stroke-miterlimit="3"/>
    <polygon points="233.7,382.892,150,431.217,66.3,382.892,66.3,286.243,150,237.919,233.7,286.243" fill="none" vector-effect="non-scaling-stroke" stroke-width="20" stroke="rgb(0,0,0)" stroke-linejoin="miter" stroke-linecap="square" stroke-miterlimit="3"/>
    <polygon points="433.7,382.892,350,431.217,266.3,382.892,266.3,286.243,350,237.919,433.7,286.243" fill="none" vector-effect="non-scaling-stroke" stroke-width="20" stroke="rgb(0,0,0)" stroke-linejoin="miter" stroke-linecap="square" stroke-miterlimit="3"/>
</svg>