<svg xmlns="http://www.w3.org/2000/svg" xmlns:xlink="http://www.w3.org/1999/xlink" style="isolation:isolate" viewBox="-30 -30 560 560" width="560" height="560">
    <path d="M 151.722 0 L 348.278 0 C 432.016 0 500 67.984 500 151.722 L 500 348.278 C 500 432.016 432.016 500 348.278 500 L 151.722 500 C 67.984 500 0 432.016 0 348.278 L 0 151.722 C 0 67.984 67.984 0 151.722 0 Z" style="fill:none;stroke:#000000;stroke-width:20;stroke-linecap:square;stroke-miterlimit:3;"/>
    <path d=" M 50 250 C 50 139.617 139.617 50 250 50 C 360.383 50 450 139.617 450 250 C 450 360.383 360.383 450 250 450 C 139.617 450 50 360.383 50 250 Z " fill="none" vector-effect="non-scaling-stroke" stroke-width="20" stroke="rgb(0,0,0)" stroke-linejoin="miter" stroke-linecap="square" stroke-miterlimit="3"/>
    <line x1="250" y1="250" x2="250" y2="103" vector-effect="non-scaling-stroke" stroke-width="20" stroke="rgb(0,0,0)" stroke-linejoin="miter" stroke-linecap="square" stroke-miterlimit="3"/>
    <line x1="250" y1="250" x2="350" y2="250" vector-effect="non-scaling-stroke" stroke-width="20" stroke="rgb(0,0,0)" stroke-linejoin="miter" stroke-linecap="square" stroke-miterlimit="3"/>
</svg>